<svg width="400" height="254" viewBox="0 0 400 254" fill="none" xmlns="http://www.w3.org/2000/svg">
<g filter="url(#filter0_d_11_50)">
<path fill-rule="evenodd" clip-rule="evenodd" d="M29.5405 38C29.5405 28.6112 37.1517 21 46.5405 21H348.216C357.605 21 365.216 28.6112 365.216 38V112.689H29.5405V38ZM138.957 33.9862C140.492 32.3974 142.981 32.3974 144.516 33.9862L158.137 48.0853C159.672 49.6741 159.672 52.25 158.137 53.8388L144.933 67.5059L158.137 81.1731C159.672 82.7619 159.672 85.3378 158.137 86.9266L144.516 101.026C142.981 102.614 140.492 102.614 138.957 101.026L125.754 87.3585L112.55 101.026C111.015 102.614 108.526 102.614 106.991 101.026L93.37 86.9265C91.8351 85.3377 91.8351 82.7618 93.37 81.173L106.574 67.5059L93.3701 53.8389C91.8352 52.2501 91.8352 49.6741 93.3701 48.0853L106.991 33.9862C108.526 32.3974 111.015 32.3974 112.55 33.9862L125.754 47.6532L138.957 33.9862ZM283.484 33.9862C285.019 32.3974 287.508 32.3974 289.043 33.9862L302.664 48.0853C304.199 49.6741 304.199 52.25 302.664 53.8388L289.46 67.5059L302.664 81.1731C304.199 82.7619 304.199 85.3378 302.664 86.9266L289.043 101.026C287.508 102.614 285.02 102.614 283.485 101.026L270.281 87.3585L257.077 101.026C255.542 102.614 253.053 102.614 251.518 101.026L237.897 86.9265C236.362 85.3377 236.362 82.7618 237.897 81.173L251.101 67.5059L237.897 53.8389C236.362 52.2501 236.362 49.6741 237.897 48.0853L251.518 33.9862C253.053 32.3974 255.542 32.3974 257.077 33.9862L270.281 47.6533L283.484 33.9862Z" fill="url(#paint0_linear_11_50)"/>
<path d="M365.216 193.5H372.757C377.175 193.5 380.757 189.918 380.757 185.5V158.509C380.757 155.404 378.312 152.914 375.467 151.67C369.448 149.037 365.238 143.038 365.216 136.053V193.5Z" fill="url(#paint1_linear_11_50)"/>
<path d="M365.216 135.947C365.238 128.962 369.448 122.963 375.467 120.33C378.312 119.086 380.757 116.596 380.757 113.491V86.5C380.757 82.0817 377.175 78.5 372.757 78.5H365.216V135.947Z" fill="url(#paint2_linear_11_50)"/>
<path d="M29.5405 78.5H22C17.5817 78.5 14 82.0817 14 86.5V113.491C14 116.597 16.4449 119.086 19.2897 120.33C25.324 122.97 29.5405 128.992 29.5405 136C29.5405 143.008 25.324 149.03 19.2897 151.67C16.4448 152.914 14 155.404 14 158.509V185.5C14 189.918 17.5817 193.5 22 193.5H29.5405V136V78.5Z" fill="url(#paint3_linear_11_50)"/>
<path d="M29.5405 112.689L29.5405 215C29.5405 224.389 37.1517 232 46.5405 232H348.216C357.605 232 365.216 224.389 365.216 215V112.689L355.216 112.689V215C355.216 218.866 352.082 222 348.216 222H46.5405C42.6745 222 39.5405 218.866 39.5405 215V112.689L29.5405 112.689Z" fill="url(#paint4_linear_11_50)"/>
</g>
<g filter="url(#filter1_d_11_50)">
<path d="M57.8266 128.5V134.721H80.5194V145.703H57.8266V152.019H95.5316V163H44.9091V117.487H95.5316V128.5H57.8266ZM119.165 150.971V163H106.248V117.487H158.172V150.971H151.887L157.473 163H144.08L137.827 150.971H119.165ZM119.165 139.926H145.254V128.564H119.165V139.926ZM182.472 150.971V163H169.554V117.487H221.478V150.971H215.194L220.78 163H207.386L201.134 150.971H182.472ZM182.472 139.926H208.561V128.564H182.472V139.926ZM232.861 163V117.487H284.784V163H232.861ZM245.778 128.5V152.019H271.867V128.5H245.778ZM309.085 150.971V163H296.167V117.487H348.091V150.971H341.807L347.393 163H333.999L327.747 150.971H309.085ZM309.085 139.926H335.173V128.564H309.085V139.926ZM79.3223 203.955L94.874 169.487H108.775L88.939 215H63.6753L43.8389 169.487H57.7402L73.3555 203.955H79.3223ZM113.98 180.5V169.487H171.109V215H113.98V204.019H120.487V180.5H113.98ZM133.404 180.5V204.019H158.192V180.5H133.404ZM191.834 180.5V186.721H214.527V197.703H191.834V204.019H229.54V215H178.917V169.487H229.54V180.5H191.834ZM287.303 204.272H249.598V215H236.681V169.487H287.303V204.272ZM249.598 193.228H274.386V180.564H249.598V193.228ZM293.841 180.564V169.487H347.86V180.564H327.325V215H314.376V180.564H293.841Z" fill="white"/>
<path d="M57.8266 128.5V134.721H80.5194V145.703H57.8266V152.019H95.5316V163H44.9091V117.487H95.5316V128.5H57.8266ZM119.165 150.971V163H106.248V117.487H158.172V150.971H151.887L157.473 163H144.08L137.827 150.971H119.165ZM119.165 139.926H145.254V128.564H119.165V139.926ZM182.472 150.971V163H169.554V117.487H221.478V150.971H215.194L220.78 163H207.386L201.134 150.971H182.472ZM182.472 139.926H208.561V128.564H182.472V139.926ZM232.861 163V117.487H284.784V163H232.861ZM245.778 128.5V152.019H271.867V128.5H245.778ZM309.085 150.971V163H296.167V117.487H348.091V150.971H341.807L347.393 163H333.999L327.747 150.971H309.085ZM309.085 139.926H335.173V128.564H309.085V139.926ZM79.3223 203.955L94.874 169.487H108.775L88.939 215H63.6753L43.8389 169.487H57.7402L73.3555 203.955H79.3223ZM113.98 180.5V169.487H171.109V215H113.98V204.019H120.487V180.5H113.98ZM133.404 180.5V204.019H158.192V180.5H133.404ZM191.834 180.5V186.721H214.527V197.703H191.834V204.019H229.54V215H178.917V169.487H229.54V180.5H191.834ZM287.303 204.272H249.598V215H236.681V169.487H287.303V204.272ZM249.598 193.228H274.386V180.564H249.598V193.228ZM293.841 180.564V169.487H347.86V180.564H327.325V215H314.376V180.564H293.841Z" fill="url(#paint5_linear_11_50)"/>
</g>
<defs>
<filter id="filter0_d_11_50" x="14" y="21" width="370.757" height="215" filterUnits="userSpaceOnUse" color-interpolation-filters="sRGB">
<feFlood flood-opacity="0" result="BackgroundImageFix"/>
<feColorMatrix in="SourceAlpha" type="matrix" values="0 0 0 0 0 0 0 0 0 0 0 0 0 0 0 0 0 0 127 0" result="hardAlpha"/>
<feOffset dx="4" dy="4"/>
<feComposite in2="hardAlpha" operator="out"/>
<feColorMatrix type="matrix" values="0 0 0 0 0 0 0 0 0 0 0 0 0 0 0 0 0 0 0.61 0"/>
<feBlend mode="normal" in2="BackgroundImageFix" result="effect1_dropShadow_11_50"/>
<feBlend mode="normal" in="SourceGraphic" in2="effect1_dropShadow_11_50" result="shape"/>
</filter>
<filter id="filter1_d_11_50" x="43.8389" y="117.487" width="308.252" height="101.513" filterUnits="userSpaceOnUse" color-interpolation-filters="sRGB">
<feFlood flood-opacity="0" result="BackgroundImageFix"/>
<feColorMatrix in="SourceAlpha" type="matrix" values="0 0 0 0 0 0 0 0 0 0 0 0 0 0 0 0 0 0 127 0" result="hardAlpha"/>
<feOffset dx="4" dy="4"/>
<feComposite in2="hardAlpha" operator="out"/>
<feColorMatrix type="matrix" values="0 0 0 0 0 0 0 0 0 0 0 0 0 0 0 0 0 0 0.61 0"/>
<feBlend mode="normal" in2="BackgroundImageFix" result="effect1_dropShadow_11_50"/>
<feBlend mode="normal" in="SourceGraphic" in2="effect1_dropShadow_11_50" result="shape"/>
</filter>
<linearGradient id="paint0_linear_11_50" x1="14" y1="21" x2="381" y2="232" gradientUnits="userSpaceOnUse">
<stop stop-color="#4426F9"/>
<stop offset="1" stop-color="#79A8FF"/>
</linearGradient>
<linearGradient id="paint1_linear_11_50" x1="14" y1="21" x2="381" y2="232" gradientUnits="userSpaceOnUse">
<stop stop-color="#4426F9"/>
<stop offset="1" stop-color="#79A8FF"/>
</linearGradient>
<linearGradient id="paint2_linear_11_50" x1="14" y1="21" x2="381" y2="232" gradientUnits="userSpaceOnUse">
<stop stop-color="#4426F9"/>
<stop offset="1" stop-color="#79A8FF"/>
</linearGradient>
<linearGradient id="paint3_linear_11_50" x1="14" y1="21" x2="381" y2="232" gradientUnits="userSpaceOnUse">
<stop stop-color="#4426F9"/>
<stop offset="1" stop-color="#79A8FF"/>
</linearGradient>
<linearGradient id="paint4_linear_11_50" x1="14" y1="21" x2="381" y2="232" gradientUnits="userSpaceOnUse">
<stop stop-color="#4426F9"/>
<stop offset="1" stop-color="#79A8FF"/>
</linearGradient>
<linearGradient id="paint5_linear_11_50" x1="41" y1="121" x2="250.303" y2="328.025" gradientUnits="userSpaceOnUse">
<stop stop-color="#4426F9"/>
<stop offset="1" stop-color="#79A8FF"/>
</linearGradient>
</defs>
</svg>
